<svg xmlns="http://www.w3.org/2000/svg" xmlns:xlink="http://www.w3.org/1999/xlink" viewBox="0 0 48 48"><defs><linearGradient id="a" x1="5.0494" y1="5.0494" x2="42.9506" y2="42.9506" gradientUnits="userSpaceOnUse"><stop offset="0" stop-color="#ff9e57"/><stop offset="1" stop-color="#ff5321"/></linearGradient></defs><title>icon-castbox</title><path d="M5.0494,42.9506C1.3663,39.2675,0,33.2675,0,24S1.3663,8.7325,5.0494,5.0494,14.7325,0,24,0,39.2675,1.3663,42.9506,5.0494,48,14.7325,48,24s-1.3663,15.2675-5.0494,18.9506S33.2675,48,24,48,8.7325,46.6337,5.0494,42.9506Z" fill="url(#a)"/><path d="M27.994,17.79V28.0826a1.5,1.5,0,0,1-3,0V25.1793a1.0206,1.0206,0,0,0-1.9895.0426H23v2.68a1.5,1.5,0,0,1-3,0V24.2623a1.0211,1.0211,0,0,0-2,0v7.2241a1.5,1.5,0,0,1-3,0V26.1815a.9192.9192,0,0,0-1-.8147.9192.9192,0,0,0-1,.8147v.3893a1.5007,1.5007,0,1,1-3,0v-4.635a1.5007,1.5007,0,1,1,3,0v.3893a.9192.9192,0,0,0,1,.8147.9192.9192,0,0,0,1-.8147v-3.34a1.5,1.5,0,0,1,3,0v1.4123a1.0211,1.0211,0,0,0,2,0V16.5042a1.5,1.5,0,0,1,3,0v4.8613h.0045a1.0206,1.0206,0,0,0,1.9895.0426V17.79a1.5,1.5,0,0,1,3,0ZM31.5,20.3063A1.4881,1.4881,0,0,0,30,21.7819v5.8843a1.5,1.5,0,0,0,3,0V21.7819A1.4881,1.4881,0,0,0,31.5,20.3063Zm5,2.9874A1.4881,1.4881,0,0,0,35,24.7693v1.4665a1.5,1.5,0,0,0,3,0V24.7693A1.4881,1.4881,0,0,0,36.5,23.2937Z" fill="#fff"/></svg>