<svg xmlns="http://www.w3.org/2000/svg" viewBox="0 0 48 48"><title>icon-playerfm</title><path d="M5.0494,42.9506C1.3663,39.2675,0,33.2675,0,24S1.3663,8.7325,5.0494,5.0494,14.7325,0,24,0,39.2675,1.3663,42.9506,5.0494,48,14.7325,48,24s-1.3663,15.2675-5.0494,18.9506S33.2675,48,24,48,8.7325,46.6337,5.0494,42.9506Z" fill="#fff" stroke="#e5e5e5" stroke-miterlimit="10"/><circle cx="24" cy="24" r="21" fill="#bd1c24"/><path d="M34.5954,26.8636a10.9763,10.9763,0,1,1-13.459-13.4591" fill="none" stroke="#fff" stroke-linecap="round" stroke-miterlimit="10" stroke-width="6"/><path d="M28.0568,9.2809A16.382,16.382,0,0,1,38.6809,19.9527" fill="none" stroke="#fff" stroke-linecap="round" stroke-miterlimit="10" stroke-width="2.5"/><path d="M27.2932,13.3855a12.1062,12.1062,0,0,1,7.1591,7.35" fill="none" stroke="#fff" stroke-linecap="round" stroke-miterlimit="10" stroke-width="2.5"/><path d="M26.52,17.6141A7.4924,7.4924,0,0,1,30.3573,21.49" fill="none" stroke="#fff" stroke-linecap="round" stroke-miterlimit="10" stroke-width="2.5"/></svg>