<?xml version="1.0" encoding="UTF-8" standalone="no"?>
<svg
   xmlns:dc="http://purl.org/dc/elements/1.1/"
   xmlns:cc="http://creativecommons.org/ns#"
   xmlns:rdf="http://www.w3.org/1999/02/22-rdf-syntax-ns#"
   xmlns:svg="http://www.w3.org/2000/svg"
   xmlns="http://www.w3.org/2000/svg"
   xmlns:sodipodi="http://sodipodi.sourceforge.net/DTD/sodipodi-0.dtd"
   xmlns:inkscape="http://www.inkscape.org/namespaces/inkscape"
   enable-background="new 0 0 512 512"
   height="512px"
   id="Layer_1"
   version="1.1"
   viewBox="0 0 512 512"
   width="512px"
   xml:space="preserve"
   sodipodi:docname="iconfinder_gmail_1147408.svg"
   inkscape:version="1.0.1 (3bc2e813f5, 2020-09-07)"><metadata
     id="metadata15"><rdf:RDF><cc:Work
         rdf:about=""><dc:format>image/svg+xml</dc:format><dc:type
           rdf:resource="http://purl.org/dc/dcmitype/StillImage" /></cc:Work></rdf:RDF></metadata><defs
     id="defs13" /><sodipodi:namedview
     pagecolor="#ffffff"
     bordercolor="#666666"
     borderopacity="1"
     objecttolerance="10"
     gridtolerance="10"
     guidetolerance="10"
     inkscape:pageopacity="0"
     inkscape:pageshadow="2"
     inkscape:window-width="1920"
     inkscape:window-height="1017"
     id="namedview11"
     showgrid="false"
     inkscape:zoom="0.83007813"
     inkscape:cx="516.2342"
     inkscape:cy="102.69379"
     inkscape:window-x="-8"
     inkscape:window-y="-8"
     inkscape:window-maximized="1"
     inkscape:current-layer="Layer_1" /><g
     id="g4"
     style="fill:#008080"
     transform="matrix(1.0342169,0,0,1.0342169,-7.5548017,-9.9642479)"><circle
       cx="255.99899"
       cy="256"
       r="246.455"
       id="circle2"
       style="fill:#008080" /></g><g
     id="Page-1"><g
       id="Icons-Communication"
       transform="translate(0.000000, -85.000000)"><g
         id="gmail"
         transform="translate(0.000000, 85.000000)"><path
           d="M384,128H128c-17.602,0-32,14.406-32,32v192c0,17.594,14.398,32,32,32h256     c17.594,0,32-14.406,32-32V160C416,142.406,401.594,128,384,128L384,128z M384,352h-32V211.203L256,272l-96-60.797V352h-32V160     h19.203L256,227.203L364.797,160H384V352L384,352z"
           fill="#FFFFFF"
           id="Shape" /></g></g></g></svg>
